<svg width="24" height="17" viewBox="0 0 24 17" fill="none" xmlns="http://www.w3.org/2000/svg">
<path d="M1.14706 0C1.78138 0 2.29411 0.513882 2.29411 1.14706V7.63826C2.2987 7.62565 2.30902 7.61532 2.31476 7.60271C2.34229 7.53388 2.38473 7.47309 2.42717 7.40885C2.457 7.36297 2.47076 7.3102 2.50861 7.26891C2.52467 7.25056 2.54761 7.24368 2.56597 7.22647C2.58317 7.20926 2.59006 7.18747 2.60727 7.17141L10.3774 0.289059C10.8512 -0.129618 11.575 -0.0871766 11.9971 0.386559C12.4169 0.861441 12.3722 1.58523 11.8984 2.00621L6.39256 6.88235L22.5882 6.88235C23.2226 6.88235 24 7.39623 24 8.02941C24 8.66259 23.2226 9.17647 22.5883 9.17647L6.39256 9.17647L11.8984 14.0526C12.3722 14.4724 12.4169 15.1974 11.9971 15.6723C11.77 15.9281 11.4545 16.0588 11.1379 16.0588C10.8672 16.0588 10.5954 15.9636 10.3774 15.7709L2.60727 8.88856C2.58891 8.87135 2.58088 8.84841 2.56367 8.83006C2.54762 8.814 2.52467 8.80826 2.50861 8.78991C2.47076 8.74747 2.457 8.69585 2.42717 8.64997C2.38588 8.58573 2.34344 8.52609 2.31476 8.45612C2.31017 8.4435 2.2987 8.43318 2.29411 8.42056L2.29411 14.9118C2.29411 15.5449 1.78138 16.0588 1.14706 16.0588C0.512735 16.0588 0 15.5449 0 14.9118L0 1.14706C0 0.513882 0.512735 0 1.14706 0Z" fill="black"/>
</svg>
