<svg width="61" height="60" viewBox="0 0 61 60" fill="none" xmlns="http://www.w3.org/2000/svg">
<g clip-path="url(#clip0_54790_12347)">
<g clip-path="url(#clip1_54790_12347)">
<g clip-path="url(#clip2_54790_12347)">
<path d="M22.0625 21.5625H20.1875V33.0253H22.0625V21.5625Z" fill="#7D7D7F"/>
<path d="M47.375 51.5625C53.5882 51.5625 58.625 46.5257 58.625 40.3125C58.625 34.0993 53.5882 29.0625 47.375 29.0625C41.1618 29.0625 36.125 34.0993 36.125 40.3125C36.125 46.5257 41.1618 51.5625 47.375 51.5625Z" fill="#7D7D7F"/>
<path d="M47.375 29.0625C44.7463 29.0625 42.3341 29.9709 40.4197 31.4822C38.9084 33.3966 38 35.8088 38 38.4375C38 44.6503 43.0372 49.6875 49.25 49.6875C51.8787 49.6875 54.2909 48.7791 56.2053 47.2678C57.7166 45.3534 58.625 42.9412 58.625 40.3125C58.625 34.0997 53.5878 29.0625 47.375 29.0625Z" fill="#9A9B9F"/>
<path d="M47.375 45.9375C50.4816 45.9375 53 43.4191 53 40.3125C53 37.2059 50.4816 34.6875 47.375 34.6875C44.2684 34.6875 41.75 37.2059 41.75 40.3125C41.75 43.4191 44.2684 45.9375 47.375 45.9375Z" fill="#E4E5E7"/>
<path d="M13.625 51.5625C19.8382 51.5625 24.875 46.5257 24.875 40.3125C24.875 34.0993 19.8382 29.0625 13.625 29.0625C7.4118 29.0625 2.375 34.0993 2.375 40.3125C2.375 46.5257 7.4118 51.5625 13.625 51.5625Z" fill="#7D7D7F"/>
<path d="M13.625 29.0625C10.9963 29.0625 8.58406 29.9709 6.66969 31.4822C5.15844 33.3966 4.25 35.8088 4.25 38.4375C4.25 44.6503 9.28719 49.6875 15.5 49.6875C18.1287 49.6875 20.5409 48.7791 22.4553 47.2678C23.9666 45.3534 24.875 42.9412 24.875 40.3125C24.875 34.0997 19.8378 29.0625 13.625 29.0625Z" fill="#9A9B9F"/>
<path d="M13.625 45.9375C16.7316 45.9375 19.25 43.4191 19.25 40.3125C19.25 37.2059 16.7316 34.6875 13.625 34.6875C10.5184 34.6875 8 37.2059 8 40.3125C8 43.4191 10.5184 45.9375 13.625 45.9375Z" fill="#E4E5E7"/>
<path d="M31.4375 12.1875H37.0625L39.8844 20.9906L13.5238 37.9012C13.0025 38.235 12.6875 38.8125 12.6875 39.4312C12.6875 40.4353 13.5012 41.25 14.5062 41.25C15.155 41.25 15.7897 41.0616 16.3325 40.7062L41.0375 24.5719L46.0391 40.0228C46.2406 40.6472 46.7609 41.1572 47.4116 41.2378C48.4034 41.3597 49.25 40.5872 49.25 39.6187C49.25 38.8406 49.1281 38.0531 48.8844 37.3125L39.875 8.4375H31.4375C30.4016 8.4375 29.5625 9.27656 29.5625 10.3125C29.5625 11.3484 30.4016 12.1875 31.4375 12.1875Z" fill="#B13B27"/>
<path d="M31.4375 8.4375C30.4016 8.4375 29.5625 9.27656 29.5625 10.3125C29.5625 11.3484 30.4016 12.1875 31.4375 12.1875H37.0625L39.875 8.4375H31.4375Z" fill="#9A9B9F"/>
<path d="M34.25 8.4375H32.375V12.1875H34.25V8.4375Z" fill="#B13B27"/>
<path d="M25.8125 20.7291C25.8125 21.7378 25.0541 22.5844 24.0519 22.6959L17.5213 23.4216C17.4238 23.4319 17.3253 23.4375 17.2278 23.4375C15.7559 23.4375 14.5625 22.2441 14.5625 20.7722C14.5625 19.6556 15.4681 18.75 16.5847 18.75H23.8334C24.9266 18.75 25.8125 19.6359 25.8125 20.7291Z" fill="#B13B27"/>
<path d="M18.4597 19.6875C17.3431 19.6875 16.4375 20.5931 16.4375 21.7097C16.4375 22.365 16.6831 22.9575 17.0759 23.4216C17.1275 23.4253 17.1753 23.4375 17.2278 23.4375C17.3263 23.4375 17.4247 23.4319 17.5222 23.4216L24.0528 22.6959C25.0541 22.5844 25.8125 21.7369 25.8125 20.7291C25.8125 20.3456 25.6981 19.9913 25.5097 19.6875H18.4597Z" fill="#802613"/>
</g>
</g>
</g>
<defs>
<clipPath id="clip0_54790_12347">
<rect width="60" height="60" fill="white" transform="translate(0.5)"/>
</clipPath>
<clipPath id="clip1_54790_12347">
<rect width="56.25" height="43.125" fill="white" transform="translate(2.375 8.4375)"/>
</clipPath>
<clipPath id="clip2_54790_12347">
<rect width="56.25" height="43.125" fill="white" transform="translate(2.375 8.4375)"/>
</clipPath>
</defs>
</svg>
