<svg width="34" height="44" viewBox="0 0 34 44" fill="none" xmlns="http://www.w3.org/2000/svg">
<g clip-path="url(#clip0_54191_34873)">
<path d="M17 0C12.6257 0.0058026 8.43224 1.74605 5.33915 4.83915C2.24605 7.93224 0.505803 12.1257 0.5 16.5C0.5 28.3456 15.8725 43.1819 16.5256 43.8075C16.6527 43.931 16.8228 44 17 44C17.1772 44 17.3473 43.931 17.4744 43.8075C18.1275 43.1819 33.5 28.3456 33.5 16.5C33.4942 12.1257 31.7539 7.93224 28.6609 4.83915C25.5678 1.74605 21.3743 0.0058026 17 0Z" fill="#FEF7FF"/>
<path d="M13.7432 13.3252H13.0195V17.6388H13.7432V13.3252Z" fill="#7D7D7F"/>
<path d="M23.513 24.6146C25.9111 24.6146 27.8551 22.7191 27.8551 20.381C27.8551 18.0429 25.9111 16.1475 23.513 16.1475C21.1149 16.1475 19.1709 18.0429 19.1709 20.381C19.1709 22.7191 21.1149 24.6146 23.513 24.6146Z" fill="#7D7D7F"/>
<path d="M23.513 16.1475C22.4983 16.1475 21.5673 16.4893 20.8284 17.058C20.2452 17.7784 19.8945 18.6862 19.8945 19.6754C19.8945 22.0134 21.8387 23.909 24.2366 23.909C25.2512 23.909 26.1823 23.5671 26.9211 22.9984C27.5044 22.278 27.8551 21.3703 27.8551 20.381C27.8551 18.043 25.9109 16.1475 23.513 16.1475Z" fill="#9A9B9F"/>
<path d="M23.5128 22.4972C24.7119 22.4972 25.6839 21.5495 25.6839 20.3804C25.6839 19.2114 24.7119 18.2637 23.5128 18.2637C22.3138 18.2637 21.3418 19.2114 21.3418 20.3804C21.3418 21.5495 22.3138 22.4972 23.5128 22.4972Z" fill="#E4E5E7"/>
<path d="M10.4866 24.6146C12.8847 24.6146 14.8287 22.7191 14.8287 20.381C14.8287 18.0429 12.8847 16.1475 10.4866 16.1475C8.08856 16.1475 6.14453 18.0429 6.14453 20.381C6.14453 22.7191 8.08856 24.6146 10.4866 24.6146Z" fill="#7D7D7F"/>
<path d="M10.4866 16.1475C9.47198 16.1475 8.54096 16.4893 7.80208 17.058C7.21879 17.7784 6.86816 18.6862 6.86816 19.6754C6.86816 22.0134 8.81234 23.909 11.2103 23.909C12.2249 23.909 13.1559 23.5671 13.8948 22.9984C14.4781 22.278 14.8287 21.3703 14.8287 20.381C14.8287 18.043 12.8845 16.1475 10.4866 16.1475Z" fill="#9A9B9F"/>
<path d="M10.4865 22.4972C11.6855 22.4972 12.6575 21.5495 12.6575 20.3804C12.6575 19.2114 11.6855 18.2637 10.4865 18.2637C9.28744 18.2637 8.31543 19.2114 8.31543 20.3804C8.31543 21.5495 9.28744 22.4972 10.4865 22.4972Z" fill="#E4E5E7"/>
<path d="M17.3618 9.79693H19.5329L20.622 13.1097L10.4478 19.4734C10.2466 19.599 10.125 19.8163 10.125 20.0492C10.125 20.427 10.4391 20.7336 10.827 20.7336C11.0774 20.7336 11.3223 20.6627 11.5318 20.529L21.0671 14.4574L22.9975 20.2718C23.0753 20.5068 23.2762 20.6987 23.5273 20.729C23.9101 20.7749 24.2368 20.4842 24.2368 20.1197C24.2368 19.8269 24.1898 19.5306 24.0957 19.2519L20.6184 8.38574H17.3618C16.962 8.38574 16.6382 8.70149 16.6382 9.09133C16.6382 9.48117 16.962 9.79693 17.3618 9.79693Z" fill="#B13B27"/>
<path d="M17.3619 8.38574C16.962 8.38574 16.6382 8.70149 16.6382 9.09133C16.6382 9.48117 16.962 9.79693 17.3619 9.79693H19.5329L20.6184 8.38574H17.3619Z" fill="#9A9B9F"/>
<path d="M18.4473 8.38574H17.7236V9.79693H18.4473V8.38574Z" fill="#B13B27"/>
<path d="M15.1907 13.0114C15.1907 13.391 14.898 13.7095 14.5112 13.7515L11.9906 14.0246C11.953 14.0285 11.915 14.0306 11.8773 14.0306C11.3093 14.0306 10.8486 13.5815 10.8486 13.0276C10.8486 12.6074 11.1982 12.2666 11.6291 12.2666H14.4269C14.8488 12.2666 15.1907 12.6 15.1907 13.0114Z" fill="#B13B27"/>
<path d="M12.3528 12.6191C11.9218 12.6191 11.5723 12.9599 11.5723 13.3801C11.5723 13.6267 11.6671 13.8497 11.8187 14.0243C11.8386 14.0257 11.857 14.0303 11.8773 14.0303C11.9153 14.0303 11.9533 14.0282 11.9909 14.0243L14.5115 13.7513C14.898 13.7093 15.1907 13.3904 15.1907 13.0111C15.1907 12.8668 15.1465 12.7334 15.0738 12.6191H12.3528Z" fill="#802613"/>
</g>
<defs>
<clipPath id="clip0_54191_34873">
<rect width="34" height="44" fill="white"/>
</clipPath>
</defs>
</svg>
