<?xml version="1.0" standalone="no"?>
<!DOCTYPE svg PUBLIC "-//W3C//DTD SVG 20010904//EN"
 "http://www.w3.org/TR/2001/REC-SVG-20010904/DTD/svg10.dtd">
<svg version="1.0" xmlns="http://www.w3.org/2000/svg"
 width="512.000000pt" height="456.000000pt" viewBox="0 0 512.000000 456.000000"
 preserveAspectRatio="xMidYMid meet">

<g transform="translate(0.000000,456.000000) scale(0.100000,-0.100000)"
fill="#000000" stroke="none">
<path d="M3080 4504 c-91 -31 -171 -61 -177 -66 -17 -14 -16 -44 3 -99 17 -45
16 -47 -7 -79 -30 -40 -53 -49 -99 -38 -48 12 -388 32 -532 31 -153 -1 -222
-14 -407 -75 -149 -49 -160 -55 -335 -170 -158 -104 -196 -136 -299 -241 -65
-67 -129 -139 -142 -162 -41 -70 -97 -263 -92 -315 14 -121 91 -238 216 -326
97 -69 144 -116 186 -187 19 -32 60 -92 91 -133 44 -58 54 -78 49 -96 -10 -31
-225 -582 -230 -586 -1 -2 -29 4 -61 13 -147 39 -354 39 -509 -1 -77 -20 -225
-90 -306 -144 -310 -211 -476 -606 -414 -985 65 -400 346 -709 743 -817 63
-17 106 -21 232 -21 126 0 169 4 232 21 222 60 391 171 544 355 l40 47 64 -35
65 -35 172 0 171 0 11 30 c14 42 3 65 -63 130 -31 30 -56 58 -56 62 0 4 24 8
53 8 102 1 205 77 241 178 24 70 19 178 -12 239 -12 23 -22 44 -22 47 0 2 222
215 493 472 270 258 522 497 559 533 l68 64 16 -38 c9 -22 18 -53 21 -69 4
-29 1 -33 -63 -71 -249 -145 -418 -366 -489 -641 -36 -138 -36 -338 0 -480 26
-103 91 -250 147 -332 42 -62 170 -195 233 -242 129 -95 289 -165 452 -196
119 -22 355 -15 464 15 225 61 429 193 565 364 360 455 272 1099 -197 1447
-252 187 -597 254 -901 176 -51 -14 -93 -24 -94 -23 -6 7 -91 293 -89 295 2 2
37 8 78 13 42 5 91 16 111 24 39 17 92 20 100 6 3 -5 -19 -12 -50 -16 -67 -8
-100 -34 -84 -65 16 -30 150 -28 261 4 46 13 107 28 134 32 59 8 94 41 138
127 27 53 28 57 12 80 -9 14 -48 42 -88 62 -40 20 -79 43 -87 51 -22 19 -85
44 -113 44 -18 0 -37 20 -86 91 -38 55 -73 94 -89 100 -24 9 -80 7 -350 -17
-71 -7 -74 -6 -103 22 -38 35 -97 121 -131 189 -33 64 -56 170 -68 310 -5 61
-16 127 -24 147 -18 43 -20 81 -6 108 10 19 13 18 59 -10 73 -45 95 -41 129
25 15 31 34 48 74 68 29 15 65 27 80 27 39 0 75 16 82 37 3 10 1 34 -4 53 -8
28 -6 43 15 88 14 30 25 61 25 68 0 18 41 34 88 34 63 0 69 10 48 77 -37 122
-148 286 -230 342 -22 15 -74 45 -115 66 -113 59 -142 58 -341 -11z m-443
-1146 c28 -73 50 -134 48 -136 -1 -1 -28 11 -61 28 -32 16 -123 52 -201 79
-181 63 -194 70 -127 71 96 0 144 12 207 51 34 21 67 38 73 39 6 0 34 -60 61
-132z m-422 -492 c174 -8 247 -15 265 -26 10 -6 -5 -31 -57 -97 -39 -48 -91
-121 -117 -160 -43 -67 -50 -73 -81 -73 -33 0 -37 4 -71 73 -20 39 -65 122
-100 184 -35 62 -64 114 -64 116 0 3 17 1 38 -3 20 -4 105 -11 187 -14z m768
-87 c34 -18 141 -68 237 -111 168 -76 199 -93 189 -102 -6 -6 -681 -37 -687
-32 -2 3 29 43 70 88 46 51 80 99 88 123 12 38 27 65 37 65 2 0 32 -14 66 -31z
m776 -30 c65 -10 121 -32 121 -48 0 -9 -66 -71 -76 -71 -16 0 -220 116 -229
130 -6 9 92 3 184 -11z m-2059 -507 l81 -247 -36 -147 -37 -147 -73 62 c-40
34 -111 85 -158 112 -47 28 -86 55 -87 60 0 6 44 142 97 303 95 285 98 292
115 272 10 -12 54 -133 98 -268z m1903 247 c23 -12 53 -29 66 -38 l24 -15 -24
-7 c-13 -4 -38 -7 -56 -8 -28 -1 -32 3 -46 44 -9 25 -14 45 -11 45 3 0 24 -10
47 -21z m-121 -135 l36 -115 -152 -148 c-83 -81 -346 -333 -583 -559 -441
-419 -474 -446 -459 -369 4 17 20 81 37 143 l31 111 116 6 c65 3 129 10 145
16 64 25 15 81 -153 171 -156 85 -204 121 -230 176 -20 41 -21 51 -12 99 14
68 45 129 117 229 65 92 242 313 257 322 9 6 538 30 723 33 l91 1 36 -116z
m-2074 -255 c-28 -85 -52 -156 -54 -158 -1 -1 -7 0 -12 3 -5 3 17 74 51 161
33 85 62 153 64 152 1 -2 -20 -73 -49 -158z m458 73 c4 -13 2 -33 -4 -45 -10
-22 -10 -22 -20 4 -6 14 -17 50 -26 80 l-16 54 30 -35 c17 -19 33 -45 36 -58z
m2433 -183 c527 -130 849 -648 720 -1159 -22 -87 -81 -214 -137 -297 -125
-185 -312 -318 -547 -389 -84 -26 -103 -28 -270 -28 -197 -1 -256 10 -408 75
-219 93 -432 311 -516 527 -50 129 -64 225 -59 386 5 118 10 155 33 226 78
242 233 435 443 554 l61 34 55 -171 c30 -95 77 -244 105 -332 47 -148 55 -165
105 -226 53 -64 55 -67 44 -101 -13 -44 -6 -78 27 -117 67 -79 193 -54 225 45
24 71 -40 164 -112 164 -25 0 -56 27 -76 66 -39 76 -262 679 -262 709 0 12
101 40 195 55 88 13 277 2 374 -21z m-3114 -74 c38 -8 73 -19 79 -25 9 -9 -10
-62 -216 -587 -57 -148 -65 -163 -91 -169 -41 -9 -97 -66 -98 -100 -3 -68 14
-108 56 -134 64 -40 156 -16 190 49 13 25 20 30 43 26 15 -3 115 -14 222 -26
107 -11 197 -22 199 -25 2 -2 -7 -18 -21 -36 -37 -50 -49 -76 -69 -153 -41
-157 -23 -186 126 -200 78 -7 129 -26 139 -51 3 -7 -25 -48 -62 -90 -288 -333
-762 -418 -1137 -203 -262 150 -430 404 -466 706 -21 176 8 348 86 511 64 133
139 230 244 316 223 182 496 249 776 191z m139 -44 c5 -7 -237 -747 -247 -758
-8 -7 -57 20 -57 31 0 18 285 736 292 736 4 0 9 -4 12 -9z m125 -60 c72 -43
194 -142 223 -181 16 -22 17 -32 8 -78 -5 -29 -19 -146 -30 -260 -19 -204 -40
-299 -66 -309 -12 -4 -351 30 -432 44 -66 11 -65 19 69 422 67 201 126 374
131 384 12 24 24 22 97 -22z m686 -317 c42 -9 101 -26 130 -39 l54 -24 -35
-131 c-19 -71 -34 -132 -34 -135 0 -4 -21 -5 -47 -3 l-47 3 -53 160 c-49 153
-58 185 -49 185 2 0 38 -7 81 -16z m-75 -369 c0 -6 -17 -28 -39 -49 l-38 -38
-7 59 c-4 32 -16 97 -27 144 l-20 86 23 38 22 39 43 -135 c23 -74 43 -139 43
-144z m-153 -110 l-3 -30 -13 30 c-8 21 -10 48 -5 90 l8 60 8 -60 c5 -33 7
-73 5 -90z"/>
</g>
</svg>
