<svg width="50" height="46" viewBox="0 0 50 46" fill="none" xmlns="http://www.w3.org/2000/svg">
<path d="M39.2879 36.248H36.2799C35.4492 36.248 34.7759 36.8724 34.7759 37.6427V41.8266C34.7759 42.5968 35.4492 43.2212 36.2799 43.2212H39.2879C40.1186 43.2212 40.7919 42.5968 40.7919 41.8266V37.6427C40.7919 36.8724 40.1186 36.248 39.2879 36.248Z" fill="#44546C"/>
<path d="M13.7196 36.248H10.7115C9.88089 36.248 9.20752 36.8724 9.20752 37.6427V41.8266C9.20752 42.5968 9.88089 43.2212 10.7115 43.2212H13.7196C14.5502 43.2212 15.2236 42.5968 15.2236 41.8266V37.6427C15.2236 36.8724 14.5502 36.248 13.7196 36.248Z" fill="#44546C"/>
<path d="M4.69561 12.5395C4.49616 12.5395 4.30489 12.466 4.16386 12.3353C4.02283 12.2045 3.9436 12.0271 3.9436 11.8422V8.35561C3.94426 7.80098 4.18216 7.26924 4.6051 6.87706C5.02804 6.48488 5.60149 6.26428 6.19962 6.26367H7.70363C7.90307 6.26367 8.09435 6.33714 8.23538 6.46791C8.37641 6.59868 8.45564 6.77605 8.45564 6.96099C8.45564 7.14593 8.37641 7.32329 8.23538 7.45406C8.09435 7.58483 7.90307 7.6583 7.70363 7.6583H6.19962C6.00023 7.65847 5.80906 7.73199 5.66807 7.86272C5.52708 7.99346 5.44779 8.17073 5.44761 8.35561V11.8422C5.44761 12.0271 5.36839 12.2045 5.22736 12.3353C5.08633 12.466 4.89505 12.5395 4.69561 12.5395Z" fill="#44546C"/>
<path d="M45.304 12.5395C45.1045 12.5395 44.9133 12.466 44.7722 12.3353C44.6312 12.2045 44.552 12.0271 44.552 11.8422V8.35561C44.5518 8.17073 44.4725 7.99346 44.3315 7.86272C44.1905 7.73199 43.9994 7.65847 43.8 7.6583H42.296C42.0965 7.6583 41.9052 7.58483 41.7642 7.45406C41.6232 7.32329 41.5439 7.14593 41.5439 6.96099C41.5439 6.77605 41.6232 6.59868 41.7642 6.46791C41.9052 6.33714 42.0965 6.26367 42.296 6.26367H43.8C44.3981 6.26428 44.9715 6.48488 45.3945 6.87706C45.8174 7.26924 46.0553 7.80098 46.056 8.35561V11.8422C46.056 12.0271 45.9767 12.2045 45.8357 12.3353C45.6947 12.466 45.5034 12.5395 45.304 12.5395Z" fill="#44546C"/>
<path d="M7.70361 36.2485C7.70361 36.9882 8.02053 37.6977 8.58464 38.2208C9.14876 38.7439 9.91386 39.0377 10.7116 39.0377H39.2878C40.0856 39.0377 40.8507 38.7439 41.4148 38.2208C41.9789 37.6977 42.2959 36.9882 42.2959 36.2485V29.9727H7.70361V36.2485Z" fill="#FFA912"/>
<path opacity="0.1" d="M39.2878 29.9727C39.2878 31.6371 38.5748 33.2334 37.3055 34.4103C36.0363 35.5873 34.3148 36.2485 32.5198 36.2485H7.70361C7.70361 36.9882 8.02053 37.6977 8.58464 38.2208C9.14876 38.7439 9.91386 39.0377 10.7116 39.0377H39.2878C40.0856 39.0377 40.8507 38.7439 41.4148 38.2208C41.9789 37.6977 42.2959 36.9882 42.2959 36.2485V29.9727H39.2878Z" fill="black"/>
<path d="M39.2878 2.77734H10.7116C9.91386 2.77734 9.14876 3.07121 8.58464 3.5943C8.02053 4.11738 7.70361 4.82684 7.70361 5.5666V8.35586H42.2959V5.5666C42.2959 4.82684 41.9789 4.11738 41.4148 3.5943C40.8507 3.07121 40.0856 2.77734 39.2878 2.77734Z" fill="#FFA912"/>
<path opacity="0.1" d="M39.2878 2.77734H35.4215C35.4888 3.00463 35.5245 3.23897 35.5278 3.47466C35.5278 4.21441 35.2109 4.92387 34.6468 5.44696C34.0827 5.97005 33.3176 6.26391 32.5198 6.26391H7.70361V8.35586H42.2959V5.5666C42.2959 4.82684 41.9789 4.11738 41.4148 3.5943C40.8507 3.07121 40.0856 2.77734 39.2878 2.77734Z" fill="black"/>
<path d="M37.784 32.7617H34.776C33.9453 32.7617 33.272 33.3861 33.272 34.1563V34.8537C33.272 35.6239 33.9453 36.2483 34.776 36.2483H37.784C38.6146 36.2483 39.288 35.6239 39.288 34.8537V34.1563C39.288 33.3861 38.6146 32.7617 37.784 32.7617Z" fill="white"/>
<path opacity="0.5" d="M37.7839 32.7617H37.5753C37.7104 32.9728 37.7825 33.2135 37.7839 33.459C37.7839 34.0139 37.5462 34.5459 37.1231 34.9383C36.7 35.3306 36.1262 35.551 35.5279 35.551H33.4805C33.6114 35.7624 33.8 35.9382 34.0274 36.0606C34.2548 36.183 34.5129 36.2477 34.7759 36.2483H37.7839C38.1828 36.2483 38.5653 36.1014 38.8474 35.8398C39.1294 35.5783 39.2879 35.2235 39.2879 34.8537V34.1563C39.2879 33.7865 39.1294 33.4317 38.8474 33.1702C38.5653 32.9087 38.1828 32.7617 37.7839 32.7617Z" fill="#9FE4ED"/>
<path d="M15.2237 32.7617H12.2157C11.385 32.7617 10.7117 33.3861 10.7117 34.1563V34.8537C10.7117 35.6239 11.385 36.2483 12.2157 36.2483H15.2237C16.0543 36.2483 16.7277 35.6239 16.7277 34.8537V34.1563C16.7277 33.3861 16.0543 32.7617 15.2237 32.7617Z" fill="white"/>
<path opacity="0.5" d="M15.2238 32.7617H15.0152C15.1504 32.9728 15.2224 33.2135 15.2238 33.459C15.2238 34.0139 14.9861 34.5459 14.5631 34.9383C14.14 35.3306 13.5662 35.551 12.9678 35.551H10.9204C11.0513 35.7624 11.2399 35.9382 11.4673 36.0606C11.6947 36.183 11.9529 36.2477 12.2158 36.2483H15.2238C15.6227 36.2483 16.0053 36.1014 16.2873 35.8398C16.5694 35.5783 16.7278 35.2235 16.7278 34.8537V34.1563C16.7278 33.7865 16.5694 33.4317 16.2873 33.1702C16.0053 32.9087 15.6227 32.7617 15.2238 32.7617Z" fill="#9FE4ED"/>
<path d="M29.5119 32.7617H20.4878C20.0725 32.7617 19.7358 33.0739 19.7358 33.459V35.551C19.7358 35.9361 20.0725 36.2483 20.4878 36.2483H29.5119C29.9272 36.2483 30.2639 35.9361 30.2639 35.551V33.459C30.2639 33.0739 29.9272 32.7617 29.5119 32.7617Z" fill="white"/>
<path opacity="0.5" d="M29.5119 32.7617H28.7599C28.7599 33.5015 28.443 34.2109 27.8789 34.734C27.3148 35.2571 26.5497 35.551 25.7519 35.551H19.7358C19.7358 35.7359 19.8151 35.9133 19.9561 36.0441C20.0971 36.1748 20.2884 36.2483 20.4878 36.2483H29.5119C29.7114 36.2483 29.9026 36.1748 30.0437 36.0441C30.1847 35.9133 30.2639 35.7359 30.2639 35.551V33.459C30.2639 33.2741 30.1847 33.0967 30.0437 32.966C29.9026 32.8352 29.7114 32.7617 29.5119 32.7617Z" fill="#9FE4ED"/>
<path d="M4.69566 11.8418H7.70368V17.4203H4.69566C4.29677 17.4203 3.91422 17.2734 3.63216 17.0118C3.35011 16.7503 3.19165 16.3956 3.19165 16.0257V13.2364C3.19165 12.8665 3.35011 12.5118 3.63216 12.2503C3.91422 11.9887 4.29677 11.8418 4.69566 11.8418Z" fill="#FFA912"/>
<path opacity="0.2" d="M6.19967 11.8418V13.2364C6.19967 13.9762 5.88276 14.6856 5.31864 15.2087C4.75453 15.7318 3.98943 16.0257 3.19165 16.0257C3.19165 16.3956 3.35011 16.7503 3.63216 17.0118C3.91422 17.2734 4.29677 17.4203 4.69566 17.4203H7.70368V11.8418H6.19967Z" fill="black"/>
<path d="M45.3039 17.4219H42.2958V11.8434H45.3039C45.7027 11.8434 46.0853 11.9903 46.3673 12.2518C46.6494 12.5134 46.8079 12.8681 46.8079 13.238V16.0272C46.8079 16.3971 46.6494 16.7519 46.3673 17.0134C46.0853 17.2749 45.7027 17.4219 45.3039 17.4219Z" fill="#FFA912"/>
<path opacity="0.2" d="M45.3039 11.8418V13.2364C45.3039 13.9762 44.987 14.6856 44.4229 15.2087C43.8588 15.7318 43.0937 16.0257 42.2959 16.0257V17.4203H45.3039C45.7028 17.4203 46.0854 17.2734 46.3674 17.0118C46.6495 16.7503 46.8079 16.3956 46.8079 16.0257V13.2364C46.8079 12.8665 46.6495 12.5118 46.3674 12.2503C46.0854 11.9887 45.7028 11.8418 45.3039 11.8418Z" fill="black"/>
<path d="M29.5119 5.56641H20.4878C20.0725 5.56641 19.7358 5.8786 19.7358 6.26372V7.65835C19.7358 8.04346 20.0725 8.35566 20.4878 8.35566H29.5119C29.9272 8.35566 30.2639 8.04346 30.2639 7.65835V6.26372C30.2639 5.8786 29.9272 5.56641 29.5119 5.56641Z" fill="white"/>
<path opacity="0.5" d="M29.5119 5.56641H28.0079C28.0079 6.12122 27.7702 6.65332 27.3471 7.04563C26.924 7.43795 26.3502 7.65835 25.7519 7.65835H19.7358C19.7358 7.84329 19.8151 8.02065 19.9561 8.15142C20.0971 8.2822 20.2884 8.35566 20.4878 8.35566H29.5119C29.7114 8.35566 29.9026 8.2822 30.0437 8.15142C30.1847 8.02065 30.2639 7.84329 30.2639 7.65835V6.26372C30.2639 6.07878 30.1847 5.90142 30.0437 5.77064C29.9026 5.63987 29.7114 5.56641 29.5119 5.56641Z" fill="#9FE4ED"/>
<path d="M7.70361 8.35547H25.0005V29.9722H7.70361V8.35547Z" fill="#348FD9"/>
<path d="M25.0005 8.35547H42.2966V29.9722H25.0005V8.35547Z" fill="#348FD9"/>
<path opacity="0.2" d="M34.7758 8.35547C34.7758 13.1639 32.7159 17.7754 29.0491 21.1754C25.3824 24.5755 20.4092 26.4856 15.2237 26.4856H7.70361V29.9722H42.2959V8.35547H34.7758Z" fill="black"/>
<path d="M12.2157 18.816C12.067 18.816 11.9216 18.7751 11.798 18.6985C11.6744 18.6218 11.578 18.513 11.5211 18.3856C11.4642 18.2582 11.4493 18.118 11.4783 17.9827C11.5073 17.8475 11.5789 17.7232 11.684 17.6257L16.1961 13.4418C16.3379 13.3148 16.5279 13.2445 16.725 13.2461C16.9222 13.2477 17.1108 13.321 17.2503 13.4503C17.3897 13.5796 17.4688 13.7545 17.4705 13.9373C17.4722 14.1202 17.3964 14.2963 17.2594 14.4278L12.7474 18.6117C12.6776 18.6766 12.5948 18.728 12.5035 18.7631C12.4123 18.7981 12.3145 18.8161 12.2157 18.816Z" fill="white"/>
<path d="M10.7118 25.0919C10.5631 25.0918 10.4177 25.0509 10.2941 24.9743C10.1705 24.8977 10.0741 24.7888 10.0172 24.6614C9.96029 24.534 9.9454 24.3938 9.9744 24.2586C10.0034 24.1233 10.075 23.9991 10.1801 23.9015L21.4602 13.4418C21.602 13.3148 21.792 13.2445 21.9892 13.2461C22.1864 13.2477 22.375 13.321 22.5144 13.4503C22.6538 13.5796 22.7329 13.7545 22.7346 13.9373C22.7363 14.1202 22.6605 14.2963 22.5236 14.4278L11.2435 24.8876C11.1737 24.9524 11.0909 25.0038 10.9996 25.0389C10.9084 25.074 10.8106 25.092 10.7118 25.0919Z" fill="white"/>
<path d="M29.5119 18.816C29.3631 18.816 29.2178 18.7751 29.0941 18.6985C28.9705 18.6218 28.8741 18.513 28.8172 18.3856C28.7603 18.2582 28.7454 18.118 28.7745 17.9827C28.8035 17.8475 28.875 17.7232 28.9802 17.6257L33.4922 13.4418C33.634 13.3148 33.824 13.2445 34.0212 13.2461C34.2184 13.2477 34.407 13.321 34.5464 13.4503C34.6858 13.5796 34.7649 13.7545 34.7666 13.9373C34.7683 14.1202 34.6925 14.2963 34.5556 14.4278L30.0435 18.6117C29.9738 18.6766 29.8909 18.728 29.7997 18.7631C29.7084 18.7981 29.6106 18.8161 29.5119 18.816Z" fill="white"/>
<path d="M28.0077 25.0919C27.859 25.0918 27.7136 25.0509 27.59 24.9743C27.4664 24.8977 27.37 24.7888 27.3131 24.6614C27.2562 24.534 27.2413 24.3938 27.2703 24.2586C27.2993 24.1233 27.3709 23.9991 27.476 23.9015L38.7561 13.4418C38.8979 13.3148 39.0879 13.2445 39.2851 13.2461C39.4823 13.2477 39.6709 13.321 39.8103 13.4503C39.9497 13.5796 40.0288 13.7545 40.0305 13.9373C40.0322 14.1202 39.9564 14.2963 39.8195 14.4278L28.5394 24.8876C28.4696 24.9524 28.3868 25.0038 28.2955 25.0389C28.2043 25.074 28.1065 25.092 28.0077 25.0919Z" fill="white"/>
<path d="M33.272 3.47471H34.024C34.2235 3.47471 34.4148 3.40124 34.5558 3.27047C34.6968 3.1397 34.776 2.96233 34.776 2.77739C34.776 2.59245 34.6968 2.41509 34.5558 2.28432C34.4148 2.15354 34.2235 2.08008 34.024 2.08008H33.272C33.0726 2.08008 32.8813 2.15354 32.7403 2.28432C32.5992 2.41509 32.52 2.59245 32.52 2.77739C32.52 2.96233 32.5992 3.1397 32.7403 3.27047C32.8813 3.40124 33.0726 3.47471 33.272 3.47471Z" fill="black"/>
<path d="M14.4717 29.2754C14.2723 29.2754 14.081 29.3489 13.94 29.4796C13.799 29.6104 13.7197 29.7878 13.7197 29.9727C13.7197 30.1576 13.799 30.335 13.94 30.4658C14.081 30.5966 14.2723 30.67 14.4717 30.67H15.2237C15.4232 30.67 15.6145 30.5966 15.7555 30.4658C15.8965 30.335 15.9757 30.1576 15.9757 29.9727C15.9757 29.7878 15.8965 29.6104 15.7555 29.4796C15.6145 29.3489 15.4232 29.2754 15.2237 29.2754H14.4717Z" fill="black"/>
<path d="M37.7841 32.0645H34.776C34.1779 32.0651 33.6045 32.2857 33.1815 32.6778C32.7586 33.07 32.5207 33.6018 32.52 34.1564V34.8537C32.5207 35.4083 32.7586 35.9401 33.1815 36.3323C33.6045 36.7244 34.1779 36.945 34.776 36.9457H37.7841C38.3822 36.945 38.9556 36.7244 39.3786 36.3323C39.8015 35.9401 40.0394 35.4083 40.0401 34.8537V34.1564C40.0394 33.6018 39.8015 33.07 39.3786 32.6778C38.9556 32.2857 38.3822 32.0651 37.7841 32.0645ZM38.5361 34.8537C38.5359 35.0386 38.4566 35.2159 38.3156 35.3466C38.1746 35.4773 37.9834 35.5509 37.7841 35.551H34.776C34.5766 35.5509 34.3855 35.4773 34.2445 35.3466C34.1035 35.2159 34.0242 35.0386 34.024 34.8537V34.1564C34.0242 33.9715 34.1035 33.7942 34.2445 33.6635C34.3855 33.5328 34.5766 33.4592 34.776 33.4591H37.7841C37.9834 33.4592 38.1746 33.5328 38.3156 33.6635C38.4566 33.7942 38.5359 33.9715 38.5361 34.1564V34.8537Z" fill="black"/>
<path d="M15.2238 32.0645H12.2157C11.6176 32.0651 11.0442 32.2857 10.6212 32.6778C10.1983 33.07 9.96037 33.6018 9.95972 34.1564V34.8537C9.96037 35.4083 10.1983 35.9401 10.6212 36.3323C11.0442 36.7244 11.6176 36.945 12.2157 36.9457H15.2238C15.8219 36.945 16.3953 36.7244 16.8183 36.3323C17.2412 35.9401 17.4791 35.4083 17.4798 34.8537V34.1564C17.4791 33.6018 17.2412 33.07 16.8183 32.6778C16.3953 32.2857 15.8219 32.0651 15.2238 32.0645ZM15.9758 34.8537C15.9756 35.0386 15.8963 35.2159 15.7553 35.3466C15.6143 35.4773 15.4231 35.5509 15.2238 35.551H12.2157C12.0163 35.5509 11.8252 35.4773 11.6842 35.3466C11.5432 35.2159 11.4639 35.0386 11.4637 34.8537V34.1564C11.4639 33.9715 11.5432 33.7942 11.6842 33.6635C11.8252 33.5328 12.0163 33.4592 12.2157 33.4591H15.2238C15.4231 33.4592 15.6143 33.5328 15.7553 33.6635C15.8963 33.7942 15.9756 33.9715 15.9758 34.1564V34.8537Z" fill="black"/>
<path d="M29.512 32.0645H20.4879C20.0891 32.0649 19.7069 32.2119 19.4249 32.4734C19.1429 32.7349 18.9843 33.0893 18.9839 33.4591V35.551C18.9843 35.9208 19.1429 36.2753 19.4249 36.5367C19.7069 36.7982 20.0891 36.9452 20.4879 36.9457H29.512C29.9107 36.9452 30.293 36.7982 30.575 36.5367C30.8569 36.2753 31.0155 35.9208 31.016 35.551V33.4591C31.0155 33.0893 30.8569 32.7349 30.575 32.4734C30.293 32.2119 29.9107 32.0649 29.512 32.0645ZM20.4879 35.551V33.4591H29.512L29.5127 35.551H20.4879Z" fill="black"/>
<path d="M46.056 11.2737V8.3559C46.0554 7.80127 45.8175 7.26953 45.3945 6.87735C44.9716 6.48517 44.3981 6.26457 43.8 6.26396H43.048V5.56665C43.0468 4.64229 42.6503 3.7561 41.9454 3.10247C41.2405 2.44885 40.2848 2.08117 39.288 2.08008H36.2799C36.0805 2.08008 35.8892 2.15354 35.7482 2.28432C35.6072 2.41509 35.5279 2.59245 35.5279 2.77739C35.5279 2.96233 35.6072 3.1397 35.7482 3.27047C35.8892 3.40124 36.0805 3.47471 36.2799 3.47471H39.288C39.8861 3.47532 40.4595 3.69591 40.8825 4.08809C41.3054 4.48028 41.5433 5.01202 41.544 5.56665V7.65859H31.0159V6.26396C31.0154 5.89421 30.8568 5.53973 30.5749 5.27828C30.2929 5.01683 29.9106 4.86976 29.5119 4.86933H20.4878C20.0891 4.86976 19.7068 5.01683 19.4248 5.27828C19.1429 5.53973 18.9843 5.89421 18.9838 6.26396V7.65859H8.45574V5.56665C8.4564 5.01202 8.69429 4.48028 9.11724 4.08809C9.54018 3.69591 10.1136 3.47532 10.7118 3.47471H31.0159C31.2153 3.47471 31.4066 3.40124 31.5476 3.27047C31.6887 3.1397 31.7679 2.96233 31.7679 2.77739C31.7679 2.59245 31.6887 2.41509 31.5476 2.28432C31.4066 2.15354 31.2153 2.08008 31.0159 2.08008H10.7118C9.7149 2.08117 8.7592 2.44885 8.05431 3.10247C7.34942 3.7561 6.9529 4.64229 6.95173 5.56665V6.26396H6.19972C5.60159 6.26457 5.02815 6.48517 4.60521 6.87735C4.18226 7.26953 3.94436 7.80127 3.94371 8.3559V11.2737C3.50509 11.4169 3.12505 11.6826 2.85575 12.0341C2.58646 12.3857 2.44112 12.8059 2.4397 13.2371V16.0264C2.44035 16.581 2.67825 17.1127 3.10119 17.5049C3.52414 17.8971 4.09758 18.1177 4.69571 18.1183H6.95173V36.2485C6.95344 36.7876 7.09055 37.319 7.35218 37.8005C7.61381 38.282 7.99278 38.7003 8.45905 39.0224C8.45905 39.0278 8.45574 39.0323 8.45574 39.0377V41.827C8.4564 42.3816 8.69429 42.9133 9.11724 43.3055C9.54018 43.6977 10.1136 43.9183 10.7118 43.9189H13.7198C14.3179 43.9183 14.8914 43.6977 15.3143 43.3055C15.7372 42.9133 15.9751 42.3816 15.9758 41.827V39.735H34.0239V41.827C34.0246 42.3816 34.2625 42.9133 34.6854 43.3055C35.1084 43.6977 35.6818 43.9183 36.2799 43.9189H39.288C39.8861 43.9183 40.4595 43.6977 40.8825 43.3055C41.3054 42.9133 41.5433 42.3816 41.544 41.827V39.0377C41.544 39.0323 41.5408 39.0278 41.5407 39.0224C42.0069 38.7003 42.3859 38.282 42.6475 37.8005C42.9092 37.319 43.0463 36.7876 43.048 36.2485V18.1183H45.304C45.9021 18.1177 46.4756 17.8971 46.8985 17.5049C47.3215 17.1127 47.5594 16.581 47.56 16.0264V13.2371C47.5586 12.8059 47.4132 12.3857 47.144 12.0341C46.8747 11.6826 46.4946 11.4169 46.056 11.2737ZM43.8 7.65859C43.9994 7.65876 44.1906 7.73228 44.3315 7.86301C44.4725 7.99375 44.5518 8.17102 44.552 8.3559V11.1452H43.048V7.65859H43.8ZM41.544 29.2753H25.7526V9.05322H41.544V29.2753ZM20.4878 6.26396H29.5119V7.65859H20.4878V6.26396ZM6.19972 7.65859H6.95173V11.1452H5.44772V8.3559C5.4479 8.17102 5.52718 7.99375 5.66817 7.86301C5.80916 7.73228 6.00033 7.65876 6.19972 7.65859ZM4.69571 16.7237C4.49632 16.7235 4.30515 16.65 4.16416 16.5193C4.02317 16.3885 3.94389 16.2112 3.94371 16.0264V13.2371C3.94389 13.0522 4.02317 12.8749 4.16416 12.7442C4.30515 12.6135 4.49632 12.54 4.69571 12.5398H6.95173V16.7237H4.69571ZM14.4718 41.827C14.4716 42.0119 14.3923 42.1891 14.2513 42.3199C14.1103 42.4506 13.9192 42.5241 13.7198 42.5243H10.7118C10.5124 42.5241 10.3212 42.4506 10.1802 42.3199C10.0392 42.1891 9.95993 42.0119 9.95975 41.827V39.6645C10.2072 39.7114 10.4592 39.735 10.7118 39.735H14.4718V41.827ZM40.04 41.827C40.0398 42.0119 39.9605 42.1891 39.8195 42.3199C39.6785 42.4506 39.4873 42.5241 39.288 42.5243H36.2799C36.0805 42.5241 35.8894 42.4506 35.7484 42.3199C35.6074 42.1891 35.5281 42.0119 35.5279 41.827V39.735H39.288C39.5405 39.735 39.7925 39.7114 40.04 39.6645V41.827ZM39.288 38.3404H10.7118C10.1136 38.3398 9.54018 38.1192 9.11724 37.727C8.69429 37.3348 8.4564 36.8031 8.45574 36.2485V30.67H12.2158C12.4152 30.67 12.6065 30.5965 12.7475 30.4657C12.8885 30.3349 12.9678 30.1576 12.9678 29.9726C12.9678 29.7877 12.8885 29.6103 12.7475 29.4796C12.6065 29.3488 12.4152 29.2753 12.2158 29.2753H8.45574V9.05322H24.2486V29.2753H17.4798C17.2804 29.2753 17.0891 29.3488 16.9481 29.4796C16.807 29.6103 16.7278 29.7877 16.7278 29.9726C16.7278 30.1576 16.807 30.3349 16.9481 30.4657C17.0891 30.5965 17.2804 30.67 17.4798 30.67H41.544V36.2485C41.5433 36.8031 41.3054 37.3348 40.8825 37.727C40.4595 38.1192 39.8861 38.3398 39.288 38.3404ZM46.056 16.0264C46.0558 16.2112 45.9765 16.3885 45.8356 16.5193C45.6946 16.65 45.5034 16.7235 45.304 16.7237H43.048V12.5398H45.304C45.5034 12.54 45.6946 12.6135 45.8356 12.7442C45.9765 12.8749 46.0558 13.0522 46.056 13.2371V16.0264Z" fill="black"/>
</svg>
