<svg width="26" height="26" viewBox="0 0 26 26" fill="none" xmlns="http://www.w3.org/2000/svg">
<path d="M20.6136 3.40648H18.2614V2.3542C18.2614 2.01374 17.89 1.85901 17.5496 1.85901H15.7236C15.2903 0.621005 14.207 0.00200396 12.969 0.00200396C11.7446 -0.0440257 10.631 0.706726 10.2144 1.85901H8.41935C8.0789 1.85901 7.73844 2.01374 7.73844 2.3542V3.40648H5.38619C3.99227 3.42135 2.8519 4.52097 2.78638 5.91341V23.6477C2.78638 25.0096 4.02438 25.9999 5.38619 25.9999H20.6136C21.9754 25.9999 23.2134 25.0096 23.2134 23.6477V5.91347C23.1479 4.52097 22.0075 3.42135 20.6136 3.40648ZM8.97639 3.09701H10.6787C10.9758 3.06075 11.2145 2.83469 11.2667 2.53991C11.45 1.74171 12.1503 1.16874 12.969 1.14718C13.7801 1.17176 14.4699 1.74651 14.6403 2.53991C14.6958 2.84488 14.9502 3.07385 15.2593 3.09701H17.0235V5.57301H8.97639V3.09701ZM21.9754 23.6478C21.9754 24.3287 21.2945 24.762 20.6136 24.762H5.38619C4.70529 24.762 4.02438 24.3287 4.02438 23.6478V5.91347C4.08753 5.20472 4.67472 4.65752 5.38619 4.64454H7.73839V6.223C7.77109 6.56979 8.07143 6.8292 8.41929 6.81107H17.5495C17.9038 6.83045 18.2135 6.57459 18.2613 6.223V4.64448H20.6135C21.325 4.65752 21.9122 5.20466 21.9754 5.91341V23.6478H21.9754Z" fill="black"/>
<path d="M10.6167 13.8365C10.3846 13.5918 9.99914 13.578 9.7501 13.8056L7.76928 15.6935L6.93364 14.8269C6.70148 14.5822 6.31606 14.5684 6.06702 14.796C5.82727 15.0472 5.82727 15.4424 6.06702 15.6935L7.33594 16.9934C7.44577 17.1164 7.60442 17.1844 7.76922 17.1792C7.93249 17.1769 8.08823 17.1101 8.20251 16.9934L10.6166 14.7032C10.8559 14.4836 10.8719 14.1116 10.6523 13.8723C10.6411 13.8598 10.6292 13.8479 10.6167 13.8365Z" fill="black"/>
<path d="M19.4994 15.168H12.381C12.0391 15.168 11.762 15.4451 11.762 15.787C11.762 16.1288 12.0391 16.406 12.381 16.406H19.4994C19.8413 16.406 20.1184 16.1288 20.1184 15.787C20.1184 15.4451 19.8413 15.168 19.4994 15.168Z" fill="black"/>
<path d="M10.6167 8.88439C10.3846 8.63966 9.99914 8.62586 9.7501 8.85346L7.76928 10.7414L6.93364 9.87476C6.70148 9.63004 6.31606 9.61624 6.06702 9.84384C5.82727 10.095 5.82727 10.4902 6.06702 10.7414L7.33594 12.0413C7.44577 12.1643 7.60442 12.2323 7.76922 12.227C7.93249 12.2247 8.08823 12.1579 8.20251 12.0413L10.6166 9.75101C10.8559 9.53147 10.8719 9.15944 10.6523 8.92017C10.6411 8.90767 10.6292 8.89576 10.6167 8.88439Z" fill="black"/>
<path d="M19.4994 10.2158H12.381C12.0391 10.2158 11.762 10.4929 11.762 10.8348C11.762 11.1767 12.0391 11.4538 12.381 11.4538H19.4994C19.8413 11.4538 20.1184 11.1767 20.1184 10.8348C20.1184 10.4929 19.8413 10.2158 19.4994 10.2158Z" fill="black"/>
<path d="M10.6167 18.7887C10.3846 18.5439 9.99914 18.5302 9.7501 18.7577L7.76928 20.6457L6.93364 19.779C6.70148 19.5343 6.31606 19.5206 6.06702 19.7481C5.82727 19.9993 5.82727 20.3945 6.06702 20.6457L7.33594 21.9456C7.44577 22.0686 7.60442 22.1366 7.76922 22.1313C7.93249 22.129 8.08823 22.0622 8.20251 21.9456L10.6166 19.6553C10.8559 19.4357 10.8719 19.0637 10.6523 18.8244C10.6411 18.812 10.6292 18.8001 10.6167 18.7887Z" fill="black"/>
<path d="M19.4994 20.1191H12.381C12.0391 20.1191 11.762 20.3963 11.762 20.7381C11.762 21.08 12.0391 21.3571 12.381 21.3571H19.4994C19.8413 21.3571 20.1184 21.08 20.1184 20.7381C20.1184 20.3963 19.8413 20.1191 19.4994 20.1191Z" fill="black"/>
</svg>
