<svg width="26" height="26" viewBox="0 0 26 26" fill="none" xmlns="http://www.w3.org/2000/svg">
<path d="M5.19989 3.4668C4.24222 3.4668 3.46655 4.24246 3.46655 5.20013V10.4001C3.46655 11.3578 4.24222 12.1335 5.19989 12.1335H10.3999C11.3576 12.1335 12.1332 11.3578 12.1332 10.4001V5.20013C12.1332 4.24246 11.3576 3.4668 10.3999 3.4668H5.19989ZM15.5999 3.4668C14.6422 3.4668 13.8666 4.24246 13.8666 5.20013V10.4001C13.8666 11.3578 14.6422 12.1335 15.5999 12.1335H20.7999C21.7576 12.1335 22.5332 11.3578 22.5332 10.4001V5.20013C22.5332 4.24246 21.7576 3.4668 20.7999 3.4668H15.5999ZM5.19989 13.8668C4.24222 13.8668 3.46655 14.6425 3.46655 15.6001V20.8001C3.46655 21.7578 4.24222 22.5335 5.19989 22.5335H10.3999C11.3576 22.5335 12.1332 21.7578 12.1332 20.8001V15.6001C12.1332 14.6425 11.3576 13.8668 10.3999 13.8668H5.19989ZM15.5999 13.8668C14.6422 13.8668 13.8666 14.6425 13.8666 15.6001V20.8001C13.8666 21.7578 14.6422 22.5335 15.5999 22.5335H20.7999C21.7576 22.5335 22.5332 21.7578 22.5332 20.8001V15.6001C22.5332 14.6425 21.7576 13.8668 20.7999 13.8668H15.5999Z" fill="black"/>
</svg>
