<svg width="50" height="46" viewBox="0 0 50 46" fill="none" xmlns="http://www.w3.org/2000/svg">
<g clip-path="url(#clip0_54780_57155)">
<path d="M15.1696 19.9805L4.65918 38.3424L14.2036 37.5247L18.8231 45.3132L29.3335 26.9513L15.1696 19.9805Z" fill="#E95454"/>
<path d="M16.3735 39.9663C16.6684 39.3789 16.36 38.6771 15.743 38.3729L15.1381 38.0743C14.5332 37.7548 14.303 37.0446 14.6326 36.4697C14.9666 35.8851 15.7521 35.6619 16.3825 35.9716L18.0919 36.813C18.6201 37.0725 19.2821 36.8841 19.5545 36.3916L19.5966 36.3162C19.9096 35.8516 19.7245 35.2377 19.2039 34.9824L14.0909 32.4667C13.4679 32.1597 13.1624 31.4607 13.4529 30.8719C13.7734 30.2454 14.5829 29.9984 15.2344 30.3193L19.9773 32.6536C20.5055 32.9132 21.1675 32.7248 21.4474 32.235L21.4745 32.1709L21.482 32.1569C21.7845 31.6434 21.5723 30.9988 21.0141 30.724L18.3537 29.4152C17.7308 29.1082 17.4253 28.4092 17.7202 27.8134C18.0377 27.1939 18.8503 26.94 19.5018 27.2609L22.4405 28.7078C22.9897 28.9785 23.6458 28.7524 23.9302 28.239C23.9347 28.232 23.9347 28.232 23.9377 28.225C23.9422 28.218 23.9422 28.218 23.9452 28.2111C24.2447 27.7046 24.0792 27.0739 23.5284 26.8046L20.358 25.2447C19.7426 24.9419 19.4371 24.2429 19.7275 23.6541C20.048 23.0276 20.8576 22.7806 21.5091 23.1015L29.3306 26.9511L18.8202 45.313L15.9236 40.4309C16.1102 40.3137 16.2727 40.1686 16.3735 39.9663Z" fill="#ED6362"/>
<path d="M34.8304 19.9805L45.3408 38.3424L35.7964 37.5247L31.1769 45.3132L20.6665 26.9513L34.8304 19.9805Z" fill="#ED6362"/>
<path d="M33.6266 39.9649C33.3317 39.3775 33.6401 38.6757 34.2571 38.3715L34.862 38.0729C35.4668 37.7534 35.6971 37.0432 35.3675 36.4683C35.0335 35.8837 34.248 35.6605 33.6176 35.9702L31.9082 36.8116C31.38 37.0711 30.718 36.8827 30.4456 36.3902L30.4035 36.3149C30.0905 35.8502 30.2756 35.2363 30.7962 34.981L35.9107 32.4639C36.5337 32.1569 36.8392 31.4579 36.5487 30.8691C36.2282 30.2426 35.4187 29.9956 34.7672 30.3165L30.0243 32.6508C29.4961 32.9104 28.8341 32.722 28.5542 32.2323L28.5271 32.1681L28.5196 32.1541C28.2171 31.6407 28.4293 30.996 28.9875 30.7212L31.6479 29.4124C32.2708 29.1054 32.5763 28.4064 32.2814 27.8106C31.9639 27.1911 31.1513 26.9372 30.4998 27.2581L27.5581 28.7078C27.0088 28.9785 26.3528 28.7524 26.0684 28.239C26.0639 28.232 26.0639 28.232 26.0609 28.225C26.0564 28.218 26.0564 28.218 26.0533 28.2111C25.7539 27.7046 25.9194 27.0739 26.4702 26.8046L29.6406 25.2447C30.256 24.9419 30.5615 24.2429 30.2711 23.6541C29.9506 23.0276 29.141 22.7806 28.4895 23.1015L20.668 26.9511L31.1784 45.313L34.075 40.4309C33.8899 40.3123 33.7274 40.1672 33.6266 39.9649Z" fill="#E95454"/>
<path d="M25 33.2542C34.699 33.2542 42.5616 25.9635 42.5616 16.9699C42.5616 7.97629 34.699 0.685547 25 0.685547C15.301 0.685547 7.43848 7.97629 7.43848 16.9699C7.43848 25.9635 15.301 33.2542 25 33.2542Z" fill="#FFCC5B"/>
<path d="M27.3818 15.102H16.253C15.3878 15.102 14.6775 14.4434 14.6775 13.6411L14.6896 13.5407V13.5183C14.6775 12.6714 15.4224 11.9793 16.3372 11.9793H24.0504C25.0721 11.9793 25.9749 11.2775 26.0351 10.3287C26.0833 9.33668 25.2301 8.49952 24.1587 8.49952H15.9881C15.0868 8.49952 14.4127 7.79769 14.4247 6.96052C14.4247 6.94936 14.4247 6.94936 14.4247 6.93819C14.4247 6.92703 14.4247 6.92703 14.4247 6.91587C14.4127 6.0801 15.0853 5.37687 15.9881 5.37687H24.5379C25.5476 5.37687 26.4504 4.67505 26.5106 3.73742C26.5588 2.73421 25.7056 1.9082 24.6342 1.9082H18.3731C11.9886 4.34855 7.4895 10.1697 7.4895 16.9703C7.4895 23.7709 11.9886 29.5906 18.3746 32.0282H26.324C27.3337 32.0282 28.2365 31.3263 28.2967 30.3887C28.3449 29.3855 27.4917 28.5609 26.4203 28.5609L17.377 28.5595C16.3101 28.5595 15.451 27.7321 15.5081 26.7303C15.5608 25.7926 16.4696 25.088 17.4823 25.088H20.9883C21.9965 25.0615 22.8105 24.2955 22.8105 23.3537C22.8105 22.3951 21.9694 21.6138 20.9341 21.6138H15.6195C14.7543 21.6138 14.044 20.9566 14.0561 20.1529V20.0301C13.9959 19.239 14.682 18.5693 15.5352 18.5693H27.2735C28.2952 18.5693 29.198 17.8674 29.2582 16.9298C29.3064 15.928 28.4517 15.102 27.3818 15.102Z" fill="#FDBC4B"/>
<path d="M24.9999 28.5925C18.0872 28.5925 12.4641 23.3769 12.4641 16.9684C12.4641 10.5599 18.0872 5.3457 24.9999 5.3457C31.9126 5.3457 37.5357 10.5613 37.5357 16.9698C37.5357 23.3783 31.9126 28.5925 24.9999 28.5925Z" fill="#FFDB70"/>
<path opacity="0.2" d="M37.5357 16.9695C37.5357 10.7856 32.2963 5.72773 25.7191 5.37891H24.5515C23.7811 5.37891 23.0934 5.91469 23.0468 6.62908C23.0107 7.39369 23.6607 8.02436 24.4778 8.02436L31.3754 8.02576C32.1894 8.02576 32.844 8.65642 32.8003 9.42104C32.7597 10.1368 32.0675 10.674 31.2941 10.674H28.6202C27.8513 10.6949 27.2299 11.2782 27.2299 11.9967C27.2299 12.7279 27.8724 13.3236 28.6609 13.3236H32.7146C33.3751 13.3236 33.9153 13.8259 33.9063 14.4371V14.5292C33.9514 15.1333 33.4293 15.6426 32.7778 15.6426H23.8262C23.0468 15.6426 22.3591 16.1784 22.3125 16.8928C22.2764 17.6574 22.9264 18.2881 23.7435 18.2881H32.2301C32.8906 18.2881 33.4308 18.7904 33.4308 19.4015L33.4218 19.4782V19.495C33.4308 20.141 32.862 20.6684 32.1653 20.6684H26.2819C25.5025 20.6684 24.8148 21.2042 24.7682 21.927C24.7321 22.6832 25.3821 23.3222 26.1992 23.3222H32.4302C33.1178 23.3222 33.6309 23.858 33.6219 24.4957C33.6219 24.504 33.6219 24.504 33.6219 24.5124C33.6219 24.5208 33.6219 24.5208 33.6219 24.5292C33.6309 25.1668 33.1178 25.7026 32.4302 25.7026H25.9102C25.1398 25.7026 24.4522 26.2384 24.4055 26.9528C24.3694 27.7188 25.0195 28.348 25.8365 28.348H27.5564C33.2487 27.2486 37.5357 22.5646 37.5357 16.9695Z" fill="white"/>
<path d="M33.7514 14.3954H27.6543L25.7689 9.018C25.5266 8.32733 24.4718 8.32733 24.2295 9.018L22.3456 14.3954H16.2485C15.4646 14.3954 15.138 15.3261 15.773 15.753L20.7055 19.0766L18.8216 24.454C18.5793 25.1447 19.4325 25.7195 20.0675 25.2926L25 21.969L29.9324 25.2926C30.5674 25.7195 31.4206 25.1447 31.1783 24.454L29.2944 19.0766L34.2269 15.753C34.8604 15.3261 34.5353 14.3954 33.7514 14.3954Z" fill="#EC9922"/>
</g>
<defs>
<clipPath id="clip0_54780_57155">
<rect width="48.1283" height="44.6281" fill="white" transform="translate(0.935791 0.685547)"/>
</clipPath>
</defs>
</svg>
