<svg width="26" height="26" viewBox="0 0 26 26" fill="none" xmlns="http://www.w3.org/2000/svg">
<g clip-path="url(#clip0_54390_37627)">
<path d="M24.1333 13.4316C23.9627 13.1693 23.9627 12.8306 24.1333 12.5684L25.0828 11.109C25.9477 9.77962 25.365 7.99365 23.8867 7.4278L22.2607 6.80523C21.9686 6.6933 21.7694 6.41924 21.7533 6.10678L21.6637 4.36804C21.582 2.78449 20.0609 1.68163 18.5322 2.09296L16.8509 2.54501C16.5488 2.62616 16.2265 2.5215 16.0299 2.27821L14.9353 0.924131C13.9384 -0.309034 12.0599 -0.307053 11.0647 0.924131L9.97002 2.27826C9.77339 2.5216 9.45119 2.62616 9.14904 2.54506L7.46763 2.09301C5.93593 1.68107 4.41758 2.78759 4.33613 4.3681L4.2465 6.10684C4.23035 6.41924 4.03124 6.69336 3.73909 6.80523L2.11319 7.4278C0.631858 7.99482 0.0537682 9.78226 0.916994 11.109L1.86655 12.5684C2.03712 12.8306 2.03712 13.1694 1.86655 13.4316L0.917146 14.891C0.0521432 16.2205 0.635109 18.0065 2.11324 18.5722L3.73925 19.1948C4.03139 19.3067 4.23055 19.5807 4.24665 19.8932L4.33628 21.6319C4.41793 23.2158 5.93933 24.3182 7.46779 23.907L9.14909 23.455C9.45129 23.3739 9.77345 23.4785 9.97012 23.7218L11.0647 25.0758C12.0618 26.3093 13.9403 26.3068 14.9354 25.0758L16.03 23.7218C16.2266 23.4785 16.549 23.374 16.8509 23.455L18.5323 23.907C20.0636 24.3191 21.5824 23.2127 21.6639 21.6319L21.7535 19.8932C21.7696 19.5808 21.9687 19.3067 22.2609 19.1948L23.8868 18.5722C25.368 18.0052 25.9462 16.2178 25.083 14.891L24.1333 13.4316ZM23.2799 16.9873L21.6539 17.6098C20.7353 17.9615 20.1091 18.8235 20.0585 19.8058L19.9688 21.5445C19.9429 22.0483 19.4592 22.3987 18.9729 22.2681L17.2915 21.816C16.3417 21.5605 15.3283 21.8899 14.71 22.6548L13.6155 24.0089C13.2984 24.4011 12.701 24.4003 12.3845 24.0089L11.29 22.6548C10.8107 22.0619 10.0941 21.7307 9.35364 21.7307C9.13889 21.7307 8.92205 21.7585 8.70842 21.816L7.02701 22.2681C6.53971 22.3989 6.05709 22.0473 6.03109 21.5445L5.94146 19.8058C5.89084 18.8235 5.26455 17.9615 4.34603 17.6098L2.72002 16.9872C2.24893 16.8068 2.06515 16.2385 2.33967 15.8166L3.28918 14.3572C3.82557 13.5327 3.82557 12.4672 3.28918 11.6428L2.33967 10.1834C2.06454 9.76063 2.24989 9.19274 2.72007 9.01272L4.34608 8.39015C5.26466 8.03844 5.89089 7.17649 5.94151 6.19423L6.03114 4.45549C6.05709 3.95169 6.54078 3.6013 7.02706 3.73191L8.70847 4.18396C9.65833 4.43944 10.6717 4.11008 11.29 3.34516L12.3846 1.99109C12.7017 1.59886 13.2991 1.59967 13.6155 1.99109L14.7101 3.34521C15.3285 4.11013 16.3417 4.43949 17.2916 4.18396L18.973 3.73191C19.4603 3.60105 19.9429 3.95271 19.9689 4.45549L20.0585 6.19423C20.1091 7.17649 20.7354 8.03849 21.6539 8.39015L23.28 9.01278C23.751 9.19305 23.9348 9.76149 23.6603 10.1834L22.7109 11.6428C22.1744 12.4672 22.1744 13.5327 22.7108 14.3572L23.6603 15.8165C23.9353 16.2394 23.7501 16.8072 23.2799 16.9873Z" fill="black"/>
<path d="M17.2393 8.67527C16.9079 8.34392 16.3706 8.34392 16.0392 8.67527L8.11911 16.5954C7.78776 16.9267 7.78776 17.464 8.11916 17.7954C8.28486 17.9611 8.50205 18.044 8.71919 18.044C8.93633 18.044 9.15357 17.9611 9.31922 17.7954L17.2393 9.87527C17.5707 9.54398 17.5707 9.00666 17.2393 8.67527Z" fill="black"/>
<path d="M9.56776 8.42676C8.63191 8.42676 7.87061 9.18812 7.87061 10.1239C7.87061 11.0598 8.63202 11.8211 9.56776 11.8211C10.5036 11.8211 11.2649 11.0597 11.2649 10.1239C11.265 9.18812 10.5036 8.42676 9.56776 8.42676Z" fill="black"/>
<path d="M15.7909 14.6504C14.8551 14.6504 14.0938 15.4117 14.0938 16.3475C14.0938 17.2834 14.8551 18.0447 15.7909 18.0447C16.7267 18.0447 17.4881 17.2833 17.4881 16.3475C17.4881 15.4117 16.7267 14.6504 15.7909 14.6504Z" fill="black"/>
</g>
<defs>
<clipPath id="clip0_54390_37627">
<rect width="26" height="26" fill="white"/>
</clipPath>
</defs>
</svg>
