<svg width="41" height="40" viewBox="0 0 41 40" fill="none" xmlns="http://www.w3.org/2000/svg">
<g clip-path="url(#clip0_54780_57168)">
<path d="M40.5 20.0002C40.5 8.9536 31.5457 0 20.5003 0C9.45441 0 0.5 8.9536 0.5 20.0002C0.5 31.0452 9.45441 39.9995 20.5003 39.9995C31.5457 39.9995 40.5 31.0452 40.5 20.0002Z" fill="#25B7D3"/>
<path d="M11.6428 13.9943C11.6428 12.8725 12.0029 11.7358 12.7234 10.5844C13.4435 9.43297 14.4948 8.4794 15.8765 7.72351C17.2582 6.96787 18.8702 6.58984 20.7124 6.58984C22.4246 6.58984 23.9364 6.90595 25.2473 7.53753C26.5582 8.16942 27.5706 9.02858 28.2853 10.1149C28.9996 11.2016 29.3569 12.3824 29.3569 13.6578C29.3569 14.6616 29.1532 15.5416 28.7458 16.2972C28.3383 17.053 27.854 17.7055 27.2932 18.2545C26.7321 18.8037 25.7254 19.7278 24.2729 21.0269C23.8713 21.393 23.5494 21.7149 23.3075 21.9924C23.0653 22.2699 22.8851 22.5238 22.7672 22.754C22.649 22.9843 22.5573 23.2146 22.4926 23.4449C22.4275 23.675 22.3301 24.0798 22.2003 24.6583C21.9759 25.8866 21.2731 26.5006 20.0924 26.5006C19.4782 26.5006 18.9615 26.2999 18.5424 25.8983C18.1231 25.4969 17.9136 24.9005 17.9136 24.1092C17.9136 23.1172 18.0669 22.258 18.3741 21.5318C18.6811 20.8054 19.0885 20.1677 19.5964 19.6187C20.104 19.0695 20.7891 18.4171 21.6512 17.6612C22.4069 17 22.9533 16.501 23.2898 16.1644C23.6264 15.8278 23.9098 15.4531 24.1401 15.0395C24.3704 14.6262 24.4856 14.1776 24.4856 13.6932C24.4856 12.7485 24.1341 11.9514 23.4316 11.3018C22.7288 10.6525 21.8223 10.3275 20.7124 10.3275C19.4132 10.3275 18.4566 10.6552 17.8427 11.3107C17.2285 11.9661 16.709 12.9315 16.2838 14.2069C15.8823 15.5416 15.1205 16.2086 13.9987 16.2086C13.3371 16.2086 12.7792 15.9756 12.3247 15.5089C11.8701 15.0425 11.6428 14.5376 11.6428 13.9943ZM20.2873 33.4091C19.5668 33.4091 18.938 33.1757 18.4008 32.7093C17.8633 32.243 17.5947 31.5906 17.5947 30.752C17.5947 30.008 17.8543 29.3822 18.3741 28.8743C18.8937 28.3666 19.5314 28.1126 20.2872 28.1126C21.0313 28.1126 21.6571 28.3666 22.165 28.8743C22.6725 29.3822 22.9266 30.008 22.9266 30.752C22.9266 31.5787 22.6609 32.2283 22.1295 32.7006C21.598 33.1728 20.984 33.4091 20.2873 33.4091Z" fill="white"/>
</g>
<defs>
<clipPath id="clip0_54780_57168">
<rect width="40" height="40" fill="white" transform="translate(0.5)"/>
</clipPath>
</defs>
</svg>
