<svg width="26" height="26" viewBox="0 0 26 26" fill="none" xmlns="http://www.w3.org/2000/svg">
<path d="M20.6949 10.4879C20.024 10.4879 19.382 10.6134 18.7906 10.8417C18.3273 9.81203 17.9269 8.72312 17.727 7.71009C17.4059 6.08316 15.9683 4.90234 14.3085 4.90234C13.8879 4.90234 13.5468 5.24339 13.5468 5.66406C13.5468 6.08473 13.8879 6.42578 14.3085 6.42578C14.4898 6.42578 14.6662 6.45107 14.8344 6.49804C15.3454 6.64084 15.779 6.98646 16.0319 7.4506C16.0114 7.4766 15.9919 7.50356 15.9746 7.53276L15.738 7.93114L14.5408 9.94665H8.14414L7.78055 9.03152H7.93147C8.35214 9.03152 8.69319 8.69047 8.69319 8.2698C8.69319 7.84913 8.35214 7.50808 7.93147 7.50808H5.30512C4.88445 7.50808 4.5434 7.84913 4.5434 8.2698C4.5434 8.69047 4.88445 9.03152 5.30512 9.03152H6.14128L6.80601 10.7045C6.32988 10.5638 5.82623 10.4879 5.30512 10.4879C2.37986 10.4879 0 12.8678 0 15.793C0 18.7182 2.37986 21.0981 5.30507 21.0981C7.97164 21.0981 10.1847 19.1203 10.5552 16.5547H11.9541C12.2228 16.5547 12.4717 16.4131 12.609 16.182L16.6119 9.44305C16.8467 10.1697 17.1407 10.8978 17.4575 11.5934C16.2008 12.5645 15.3899 14.0857 15.3899 15.793C15.3899 18.7182 17.7697 21.0981 20.6949 21.0981C23.6201 21.0981 26 18.7182 26 15.793C26 12.8678 23.6201 10.4879 20.6949 10.4879ZM5.30507 16.5547H9.00961C8.65617 18.276 7.12943 19.5746 5.30507 19.5746C3.21989 19.5746 1.52344 17.8782 1.52344 15.793C1.52344 13.7078 3.21989 12.0114 5.30507 12.0114C7.12943 12.0114 8.65617 13.3099 9.00961 15.0313H5.30507C4.88439 15.0313 4.54335 15.3723 4.54335 15.793C4.54335 16.2137 4.88439 16.5547 5.30507 16.5547ZM11.5206 15.0313H10.5552C10.3785 13.8075 9.78255 12.7176 8.918 11.9122C8.91008 11.8817 8.90089 11.8512 8.8889 11.8211L8.74946 11.4701H13.6359L11.5206 15.0313ZM20.6949 19.5746C18.6097 19.5746 16.9133 17.8781 16.9133 15.7929C16.9133 14.6883 17.3895 13.6929 18.1473 13.0008C19.0842 14.7912 19.9992 16.1258 20.068 16.2256C20.2159 16.4398 20.4537 16.5547 20.6956 16.5547C20.8448 16.5547 20.9956 16.5109 21.1276 16.4198C21.4739 16.1808 21.5608 15.7064 21.3218 15.3602C21.3054 15.3364 20.3836 13.9922 19.4606 12.2192C19.8477 12.0851 20.2628 12.0113 20.6949 12.0113C22.7801 12.0113 24.4766 13.7077 24.4766 15.7929C24.4766 17.8781 22.7801 19.5746 20.6949 19.5746Z" fill="black"/>
</svg>
