<svg width="26" height="26" viewBox="0 0 26 26" fill="none" xmlns="http://www.w3.org/2000/svg">
<g clip-path="url(#clip0_54367_36988)">
<path d="M25.5876 7.84867L23.9748 6.23586C23.7879 6.04898 23.4894 6.03273 23.2822 6.19727C22.817 6.57102 22.297 6.75992 21.7364 6.75992C20.3876 6.75992 19.2928 5.66305 19.2928 4.31633C19.2928 3.7557 19.4817 3.2357 19.8534 2.76852C20.02 2.56133 20.0037 2.26273 19.8169 2.07586L18.204 0.465078C17.6556 -0.0853908 16.6644 -0.0833592 16.1179 0.463047L13.329 3.23367L14.044 3.94867C14.2472 4.1518 14.2472 4.48086 14.044 4.68398C13.9425 4.78555 13.8084 4.83633 13.6764 4.83633C13.5423 4.83633 13.4103 4.78555 13.3087 4.68398L12.5917 3.96695L0.412324 16.0651C0.138105 16.3393 -0.012207 16.709 -0.012207 17.1071C-0.012207 17.5073 0.138105 17.877 0.412324 18.1512L2.02514 19.764C2.21201 19.9509 2.50857 19.9691 2.71779 19.8026C3.21139 19.4065 3.78014 19.1871 4.31639 19.1871C5.66311 19.1871 6.75998 20.284 6.75998 21.6307C6.75998 22.2218 6.54873 22.7824 6.16482 23.207C5.97998 23.4141 5.98811 23.727 6.18514 23.924L7.79592 25.5348C8.07014 25.809 8.44186 25.9613 8.83998 25.9613C9.2381 25.9613 9.60982 25.809 9.88404 25.5348L22.0228 13.396L21.3159 12.6912C21.1128 12.488 21.1128 12.159 21.3159 11.9559C21.5211 11.7527 21.8481 11.7527 22.0512 11.9559L22.7581 12.6607L25.5125 9.90633C25.7989 9.6768 25.9776 9.33555 26.004 8.9618C26.0325 8.54742 25.8801 8.14117 25.5876 7.84867ZM16.2297 6.86961C16.1281 6.97117 15.9961 7.02195 15.862 7.02195C15.7279 7.02195 15.5959 6.97117 15.4944 6.86961L14.7651 6.14039C14.562 5.93727 14.562 5.6082 14.7651 5.40508C14.9683 5.20195 15.2953 5.20195 15.5004 5.40508L16.2297 6.1343C16.4328 6.33742 16.4328 6.66648 16.2297 6.86961ZM18.4194 9.0593C18.3178 9.16086 18.1858 9.21164 18.0517 9.21164C17.9197 9.21164 17.7856 9.16086 17.684 9.0593L16.9548 8.33008C16.7517 8.12695 16.7517 7.79586 16.9548 7.59477C17.1579 7.39164 17.487 7.39164 17.6901 7.59477L18.4194 8.32398C18.6225 8.52711 18.6225 8.85617 18.4194 9.0593ZM20.609 11.249C20.5075 11.3505 20.3754 11.4013 20.2414 11.4013C20.1094 11.4013 19.9753 11.3505 19.8737 11.249L19.1445 10.5198C18.9414 10.3166 18.9414 9.98758 19.1445 9.78445C19.3476 9.58133 19.6767 9.58133 19.8798 9.78445L20.609 10.5137C20.8122 10.7168 20.8122 11.0459 20.609 11.249Z" fill="black"/>
</g>
<defs>
<clipPath id="clip0_54367_36988">
<rect width="26" height="26" fill="white"/>
</clipPath>
</defs>
</svg>
